<svg xmlns="http://www.w3.org/2000/svg" version="1.1" xmlns:xlink="http://www.w3.org/1999/xlink" xmlns:svgjs="http://svgjs.dev/svgjs" width="1000" height="1000" viewBox="0 0 1000 1000"><rect width="1000" height="1000" fill="#ffffff"></rect><g transform="matrix(0.7,0,0,0.7,149.57575757575756,282.1265587044535)"><svg viewBox="0 0 396 247" data-background-color="#ffffff" preserveAspectRatio="xMidYMid meet" height="623" width="1000" xmlns="http://www.w3.org/2000/svg" xmlns:xlink="http://www.w3.org/1999/xlink"><g id="tight-bounds" transform="matrix(1,0,0,1,0.2400000000000091,-0.09999999999999432)"><svg viewBox="0 0 395.52 247.2" height="247.2" width="395.52"><g><svg></svg></g><g><svg viewBox="0 0 395.52 247.2" height="247.2" width="395.52"><g transform="matrix(1,0,0,1,39.55199999999999,103.1703319061483)"><svg viewBox="0 0 316.416 40.85933618770337" height="40.85933618770337" width="316.416"><g><svg viewBox="0 0 316.416 40.85933618770337" height="40.85933618770337" width="316.416"><g><svg viewBox="0 0 316.416 40.85933618770337" height="40.85933618770337" width="316.416"><g id="textblocktransform"><svg viewBox="0 0 316.416 40.85933618770337" height="40.85933618770337" width="316.416" id="textblock"><g><svg viewBox="0 0 316.416 40.85933618770337" height="40.85933618770337" width="316.416"><g transform="matrix(1,0,0,1,0,0)"><svg width="316.416" viewBox="1 -36.20000076293945 303.6300048828125 37.70000076293945" height="40.85933618770337" data-palette-color="#6b7280"><g class="wordmark-text-0" data-fill-palette-color="primary" id="text-0"><path d="M12.55 0.2L7.2 0.1 2.95 0.2Q1.85 0.2 1.85-0.6L1.85-0.6Q1.85-1.05 2.5-1.18 3.15-1.3 4.1-1.95 5.05-2.6 5.45-4.08 5.85-5.55 6.3-13.7 6.75-21.85 6.75-25.55 6.75-29.25 5.55-31.38 4.35-33.5 1.65-33.8L1.65-33.8Q1-33.85 1-34.55L1-34.55Q1-34.85 1.35-35.13 1.7-35.4 2.25-35.4L2.25-35.4 4.15-35.35 6.6-35.45Q7.05-35.45 7.65-35.18 8.25-34.9 8.35-34.68 8.45-34.45 8.9-33.93 9.35-33.4 10.1-32.55 10.85-31.7 11.45-30.9L11.45-30.9Q18.25-22.05 29.65-9.55L29.65-9.55Q29.95-9.2 30.38-8.75 30.8-8.3 30.98-8.08 31.15-7.85 31.35-7.65L31.35-7.65Q31.7-7.3 31.9-7.3L31.9-7.3Q32.4-7.3 32.4-10.4L32.4-10.4 32.4-16.25 32.3-26.5 32.3-26.85Q32.3-31.45 30.7-32.7L30.7-32.7Q30.1-33.15 29.7-33.27 29.3-33.4 28.55-33.55L28.55-33.55Q26.5-33.95 26.5-34.68 26.5-35.4 27.45-35.4L27.45-35.4 32.2-35.35Q32.2-35.35 36.7-35.45L36.7-35.45Q37.55-35.45 37.88-35.27 38.2-35.1 38.2-34.75 38.2-34.4 37.9-34.2L37.9-34.2Q37.5-33.95 36.45-33.6L36.45-33.6Q34.8-32.7 34.8-27.95L34.8-27.95 34.8-26.05 34.25-1.3 34.25-0.3Q34.25 0.85 33.55 0.85L33.55 0.85Q33.1 0.85 32.75 0.5L32.75 0.5Q16.15-18.75 12.93-22.38 9.7-26 9.35-26L9.35-26Q8.85-26 8.85-21.93 8.85-17.85 8.65-12.38 8.45-6.9 8.45-6.4L8.45-6.4Q8.45-4.15 9.22-2.98 10-1.8 10.9-1.65 11.8-1.5 12.58-1.33 13.35-1.15 13.35-0.63 13.35-0.1 13.18 0.05 13 0.2 12.55 0.2L12.55 0.2ZM42.1-16.95L42.1-16.95Q42.1-25.35 47.15-30.73 52.2-36.1 61.45-36.1L61.45-36.1Q65.75-36.1 69.2-34.85 72.65-33.6 74.65-31.78 76.65-29.95 78-27.6L78-27.6Q80.35-23.5 80.35-19.6L80.35-19.6Q80.35-12.8 77.7-8.1L77.7-8.1Q72.65 0.8 60.75 0.8L60.75 0.8Q54.8 0.8 50.47-1.8 46.15-4.4 44.12-8.35 42.1-12.3 42.1-16.95ZM46.5-19.5L46.5-19.5Q46.5-15.05 48.85-10.4L48.85-10.4Q50.1-7.9 51.87-5.93 53.65-3.95 56.37-2.68 59.1-1.4 62.35-1.4L62.35-1.4Q66.05-1.4 69.65-3.55L69.65-3.55Q73.65-5.9 75.3-10.1L75.3-10.1Q76.25-12.35 76.25-15L76.25-15Q76.25-24.05 71.5-29.08 66.75-34.1 59.75-34.1L59.75-34.1Q54.25-34.1 50.37-30.4 46.5-26.7 46.5-19.5ZM113.35-35.5L116.5-35.45 120.95-35.55Q121.9-35.55 121.9-34.85L121.9-34.85Q121.9-34.3 120.8-33.8L120.8-33.8Q120.35-33.6 119.75-32.95 119.15-32.3 118.7-31.25L118.7-31.25 107.55-5.85Q106.35-3.15 105.5-1.07 104.65 1 104.5 1.25 104.35 1.5 104.1 1.5L104.1 1.5Q103.2 1.5 101.87-1.85 100.55-5.2 97.67-11.45 94.8-17.7 93.25-21.2 91.7-24.7 91.02-26.35 90.35-28 89.75-29.3L89.75-29.3Q88.85-31.45 88.1-32.27 87.35-33.1 86.42-33.5 85.5-33.9 84.95-33.9L84.95-33.9Q83.55-33.8 83.55-34.8L83.55-34.8Q83.55-35.5 84.95-35.5L84.95-35.5 90.45-35.3 93.7-35.4Q94.85-35.4 95.1-35.3 95.35-35.2 95.35-34.88 95.35-34.55 94.85-34.3L94.85-34.3Q93.3-33.5 93.3-32.68 93.3-31.85 93.47-31.18 93.65-30.5 94.25-29.1 94.85-27.7 95.47-26.3 96.1-24.9 97.52-21.78 98.95-18.65 100.3-15.6L100.3-15.6Q104.5-5.95 105.3-5.95L105.3-5.95Q105.55-5.95 108.17-12 110.8-18.05 113.35-24.65 115.9-31.25 115.9-32.25 115.9-33.25 115.32-33.68 114.75-34.1 114.1-34.2L114.1-34.2Q112.3-34.4 112.3-35L112.3-35Q112.3-35.35 112.47-35.43 112.65-35.5 113.35-35.5L113.35-35.5ZM133.79 0.05L129.64 0 125.34 0.2Q123.89 0.2 123.89-0.4L123.89-0.4Q123.89-1.1 124.64-1.35L124.64-1.35Q126.24-1.95 127.44-4.03 128.64-6.1 133.47-16.57 138.29-27.05 142.04-35.05L142.04-35.05Q142.39-35.8 142.67-36 142.94-36.2 143.47-36.2 143.99-36.2 144.14-36 144.29-35.8 144.69-34.65 145.09-33.5 145.32-32.9 145.54-32.3 146.04-30.95 146.54-29.6 147.64-26.9 148.74-24.2 152.67-15.08 156.59-5.95 157.19-4.73 157.79-3.5 158.84-2.63 159.89-1.75 160.67-1.68 161.44-1.6 161.97-1.43 162.49-1.25 162.49-0.65L162.49-0.65Q162.49 0.1 161.14 0.1L161.14 0.1 156.64-0.2 151.99 0Q150.44 0 150.02-0.13 149.59-0.25 149.59-0.65 149.59-1.05 149.99-1.28 150.39-1.5 150.84-1.58 151.29-1.65 151.69-2.02 152.09-2.4 152.09-3.28 152.09-4.15 150.84-7.55 149.59-10.95 148.74-12.55L148.74-12.55Q148.29-13.4 146.69-13.4L146.69-13.4 140.64-13.3 137.99-13.3Q135.74-13.3 135.17-13.05 134.59-12.8 134.22-12 133.84-11.2 133.14-9.78 132.44-8.35 132.19-7.8 131.94-7.25 131.59-6.4L131.59-6.4Q130.94-4.9 130.94-3.9 130.94-2.9 131.52-2.3 132.09-1.7 132.79-1.6L132.79-1.6Q134.64-1.45 134.64-0.65L134.64-0.65Q134.64-0.3 134.49-0.13 134.34 0.05 133.79 0.05L133.79 0.05ZM141.69-28.5Q141.24-28.5 138.84-22.98 136.44-17.45 136.44-16.85 136.44-16.25 136.89-16.1 137.34-15.95 138.99-15.95L138.99-15.95 140.54-15.95 145.29-16Q147.24-16 147.24-16.73 147.24-17.45 144.79-22.98 142.34-28.5 141.69-28.5L141.69-28.5Z" fill="#000000" data-fill-palette-color="primary"></path><path d="M203.94-35.5L207.09-35.45 211.54-35.55Q212.49-35.55 212.49-34.85L212.49-34.85Q212.49-34.3 211.39-33.8L211.39-33.8Q210.94-33.6 210.34-32.95 209.74-32.3 209.29-31.25L209.29-31.25 198.14-5.85Q196.94-3.15 196.09-1.07 195.24 1 195.09 1.25 194.94 1.5 194.69 1.5L194.69 1.5Q193.79 1.5 192.46-1.85 191.14-5.2 188.26-11.45 185.39-17.7 183.84-21.2 182.29-24.7 181.61-26.35 180.94-28 180.34-29.3L180.34-29.3Q179.44-31.45 178.69-32.27 177.94-33.1 177.01-33.5 176.09-33.9 175.54-33.9L175.54-33.9Q174.14-33.8 174.14-34.8L174.14-34.8Q174.14-35.5 175.54-35.5L175.54-35.5 181.04-35.3 184.29-35.4Q185.44-35.4 185.69-35.3 185.94-35.2 185.94-34.88 185.94-34.55 185.44-34.3L185.44-34.3Q183.89-33.5 183.89-32.68 183.89-31.85 184.06-31.18 184.24-30.5 184.84-29.1 185.44-27.7 186.06-26.3 186.69-24.9 188.11-21.78 189.54-18.65 190.89-15.6L190.89-15.6Q195.09-5.95 195.89-5.95L195.89-5.95Q196.14-5.95 198.76-12 201.39-18.05 203.94-24.65 206.49-31.25 206.49-32.25 206.49-33.25 205.91-33.68 205.34-34.1 204.69-34.2L204.69-34.2Q202.89-34.4 202.89-35L202.89-35Q202.89-35.35 203.06-35.43 203.24-35.5 203.94-35.5L203.94-35.5ZM219.44-17.25L219.44-20.1 219.49-25.5 219.49-27.8Q219.49-30 219.31-31.33 219.14-32.65 217.96-33.3 216.79-33.95 215.64-34 214.49-34.05 214.49-34.77 214.49-35.5 215.89-35.5L215.89-35.5 221.54-35.3 225.94-35.4Q227.29-35.4 227.29-34.7L227.29-34.7Q227.29-34.3 224.99-33.35L224.99-33.35Q223.39-32.7 223.39-27.6L223.39-27.6 223.24-9.1Q223.24-4.9 224.41-3.2 225.59-1.5 226.89-1.5L226.89-1.5 227.89-1.45Q228.24-1.45 228.58-1.28 228.94-1.1 228.94-0.7L228.94-0.7Q228.94 0 227.69 0L227.69 0 222.94-0.2 217.44 0.05Q215.19 0.05 215.19-0.7L215.19-0.7Q215.19-1.4 216.74-1.6L216.74-1.6Q217.34-1.65 217.99-2.23 218.64-2.8 218.81-3.53 218.99-4.25 219.21-9.58 219.44-14.9 219.44-17.25L219.44-17.25ZM233.08-35.9Q233.73-35.9 237.16-35.7 240.58-35.5 250.63-35.5 260.68-35.5 262.78-35.8L262.78-35.8Q263.33-35.8 263.53-35.5 263.73-35.2 263.73-34.95L263.73-34.95 264.03-30.9Q264.03-29.65 263.88-29.33 263.73-29 263.23-29L263.23-29Q262.83-29 262.56-30.03 262.28-31.05 261.98-31.6L261.98-31.6Q261.23-32.9 257.63-32.9L257.63-32.9 251.13-32.9Q249.93-32.9 249.66-32.43 249.38-31.95 249.38-29.7L249.38-29.7 249.38-27.25 249.23-8.95 249.18-5.7Q249.18-3.55 249.86-2.9 250.53-2.25 251.33-1.93 252.13-1.6 252.68-1.55L252.68-1.55Q254.08-1.45 254.08-0.65L254.08-0.65Q254.08-0.1 253.83 0.05 253.58 0.2 252.88 0.2L252.88 0.2 247.33-0.2 242.23 0.15Q240.38 0.15 240.38-0.65L240.38-0.65Q240.38-1.15 240.68-1.33 240.98-1.5 241.86-1.63 242.73-1.75 242.98-1.8L242.98-1.8Q244.68-2.2 244.88-3.8L244.88-3.8Q245.38-8.2 245.38-22.7L245.38-22.7 245.33-31.65Q245.33-32.6 244.78-32.83 244.23-33.05 241.13-33.05 238.03-33.05 236.26-32.85 234.48-32.65 234.18-32.48 233.88-32.3 233.46-31.75 233.03-31.2 232.76-30.48 232.48-29.75 232.38-29.3L232.38-29.3Q232.23-28.15 231.43-28.15L231.43-28.15Q230.88-28.15 230.88-29L230.88-29Q230.88-31 231.13-32.63 231.38-34.25 231.41-34.5 231.43-34.75 231.46-34.83 231.48-34.9 231.51-35.08 231.53-35.25 231.58-35.33 231.63-35.4 231.71-35.52 231.78-35.65 231.88-35.7 231.98-35.75 232.13-35.8L232.13-35.8Q232.43-35.9 233.08-35.9ZM275.93 0.05L271.78 0 267.48 0.2Q266.03 0.2 266.03-0.4L266.03-0.4Q266.03-1.1 266.78-1.35L266.78-1.35Q268.38-1.95 269.58-4.03 270.78-6.1 275.61-16.57 280.43-27.05 284.18-35.05L284.18-35.05Q284.53-35.8 284.81-36 285.08-36.2 285.61-36.2 286.13-36.2 286.28-36 286.43-35.8 286.83-34.65 287.23-33.5 287.46-32.9 287.68-32.3 288.18-30.95 288.68-29.6 289.78-26.9 290.88-24.2 294.81-15.08 298.73-5.95 299.33-4.73 299.93-3.5 300.98-2.63 302.03-1.75 302.81-1.68 303.58-1.6 304.11-1.43 304.63-1.25 304.63-0.65L304.63-0.65Q304.63 0.1 303.28 0.1L303.28 0.1 298.78-0.2 294.13 0Q292.58 0 292.16-0.13 291.73-0.25 291.73-0.65 291.73-1.05 292.13-1.28 292.53-1.5 292.98-1.58 293.43-1.65 293.83-2.02 294.23-2.4 294.23-3.28 294.23-4.15 292.98-7.55 291.73-10.95 290.88-12.55L290.88-12.55Q290.43-13.4 288.83-13.4L288.83-13.4 282.78-13.3 280.13-13.3Q277.88-13.3 277.31-13.05 276.73-12.8 276.36-12 275.98-11.2 275.28-9.78 274.58-8.35 274.33-7.8 274.08-7.25 273.73-6.4L273.73-6.4Q273.08-4.9 273.08-3.9 273.08-2.9 273.66-2.3 274.23-1.7 274.93-1.6L274.93-1.6Q276.78-1.45 276.78-0.65L276.78-0.65Q276.78-0.3 276.63-0.13 276.48 0.05 275.93 0.05L275.93 0.05ZM283.83-28.5Q283.38-28.5 280.98-22.98 278.58-17.45 278.58-16.85 278.58-16.25 279.03-16.1 279.48-15.95 281.13-15.95L281.13-15.95 282.68-15.95 287.43-16Q289.38-16 289.38-16.73 289.38-17.45 286.93-22.98 284.48-28.5 283.83-28.5L283.83-28.5Z" fill="#000000" data-fill-palette-color="secondary"></path></g></svg></g></svg></g></svg></g></svg></g><g></g></svg></g></svg></g><g><path xmlns="http://www.w3.org/2000/svg" d="M0 247.2v-247.2h395.52v247.2zM391.835 243.515v-239.83h-388.15v239.83z" fill="#000000" fill-rule="nonzero" stroke="none" stroke-width="1" stroke-linecap="butt" stroke-linejoin="miter" stroke-miterlimit="10" stroke-dasharray="" stroke-dashoffset="0" font-family="none" font-weight="none" font-size="none" text-anchor="none" style="mix-blend-mode: normal" data-fill-palette-color="tertiary"></path></g></svg></g><defs></defs></svg><rect width="395.52" height="247.2" fill="none" stroke="none" visibility="hidden"></rect></g></svg></g></svg>